<svg width="64" height="64" xmlns="http://www.w3.org/2000/svg">
 <defs>
  <filter id="svg_31_blur">
   <feGaussianBlur stdDeviation="0" in="SourceGraphic"/>
  </filter>
 </defs>
 <!-- Poker chip circle -->
 <!-- Notches -->
 <!-- Center cards: simple A♠ symbol -->
 <g>
  <title>Layer 1</title>
  <circle stroke-opacity="0.85" id="svg_1" stroke-width="3" stroke="#e9f0ff" fill="#E6C36A" r="30" cy="32" cx="32"/>
  <circle id="svg_2" stroke-width="3" stroke="#000000" fill="#E6C36A" r="22" cy="32" cx="32"/>
  <g id="svg_3" fill-opacity="0.9" fill="#e9f0ff">
   <rect id="svg_4" rx="1" height="10" width="4" y="4" x="30"/>
   <rect id="svg_5" rx="1" height="10" width="4" y="50" x="30"/>
   <rect id="svg_6" rx="1" height="4" width="10" y="30" x="4"/>
   <rect id="svg_7" rx="1" height="4" width="10" y="30" x="50"/>
  </g>
  <text filter="url(#svg_31_blur)" font-weight="bold" xml:space="preserve" text-anchor="start" font-family="'Alegreya'" font-size="30" id="svg_31" y="41.99997" x="20.68876" stroke="#aa56ff" fill="#aa56ff">H</text>
  <g id="svg_32">
   <g id="svg_15" fill-opacity="0.9" fill="#e9f0ff">
    <rect stroke="#000000" fill="#000000" id="svg_11" rx="1" height="10" width="4" y="4" x="30"/>
    <rect stroke="#000000" fill="#000000" id="svg_12" rx="1" height="10" width="4" y="50" x="30"/>
    <rect stroke="#000000" fill="#000000" id="svg_13" rx="1" height="4" width="10" y="30" x="4"/>
    <rect stroke="#000000" fill="#000000" id="svg_14" rx="1" height="4" width="10" y="30" x="50"/>
   </g>
   <g transform="rotate(45 32 32)" stroke="null" id="svg_20" fill-opacity="0.9" fill="#e9f0ff">
    <rect fill="#000000" stroke="#000000" id="svg_16" rx="1" height="10" width="4" y="4" x="30"/>
    <rect fill="#000000" stroke="#000000" id="svg_17" rx="1" height="10" width="4" y="50" x="30"/>
    <rect fill="#000000" stroke="#000000" id="svg_18" rx="1" height="4" width="10" y="30" x="4"/>
    <rect fill="#000000" stroke="#000000" id="svg_19" rx="1" height="4" width="10" y="30" x="50"/>
   </g>
   <g transform="rotate(22.5 32 32)" stroke="null" id="svg_25" fill-opacity="0.9" fill="#e9f0ff">
    <rect fill="#000000" stroke="#000000" id="svg_21" rx="1" height="10" width="4" y="4" x="30"/>
    <rect fill="#000000" stroke="#000000" id="svg_22" rx="1" height="10" width="4" y="50" x="30"/>
    <rect fill="#000000" stroke="#000000" id="svg_23" rx="1" height="4" width="10" y="30" x="4"/>
    <rect fill="#000000" stroke="#000000" id="svg_24" rx="1" height="4" width="10" y="30" x="50"/>
   </g>
   <g transform="rotate(67.5 32 32)" stroke="null" id="svg_30" fill-opacity="0.9" fill="#e9f0ff">
    <rect fill="#000000" stroke="#000000" id="svg_26" rx="1" height="10" width="4" y="4" x="30"/>
    <rect fill="#000000" stroke="#000000" id="svg_27" rx="1" height="10" width="4" y="50" x="30"/>
    <rect fill="#000000" stroke="#000000" id="svg_28" rx="1" height="4" width="10" y="30" x="4"/>
    <rect fill="#000000" stroke="#000000" id="svg_29" rx="1" height="4" width="10" y="30" x="50"/>
   </g>
  </g>
 </g>
</svg>